<?xml version="1.0" standalone="no"?>
<!DOCTYPE svg PUBLIC "-//W3C//DTD SVG 20010904//EN"
 "http://www.w3.org/TR/2001/REC-SVG-20010904/DTD/svg10.dtd">
<svg version="1.0" xmlns="http://www.w3.org/2000/svg"
 width="700.000000pt" height="700.000000pt" viewBox="0 0 700.000000 700.000000"
 preserveAspectRatio="xMidYMid meet">
<metadata>
Created by potrace 1.14, written by Peter Selinger 2001-2017
</metadata>
<g transform="translate(0.000000,700.000000) scale(0.100000,-0.100000)"
fill="#000000" stroke="none">
<path d="M984 6982 c-81 -29 -144 -71 -220 -148 -168 -170 -322 -472 -448
-874 -31 -101 -90 -318 -102 -375 -2 -11 -6 -31 -9 -45 -3 -14 -8 -36 -10 -50
-3 -14 -10 -47 -16 -75 -6 -27 -12 -61 -15 -75 -3 -14 -13 -70 -24 -125 -19
-100 -26 -149 -35 -221 -7 -55 -15 -106 -20 -133 -2 -13 -7 -56 -11 -95 -3
-39 -8 -74 -10 -77 -1 -3 -6 -45 -9 -95 -4 -49 -9 -97 -10 -106 -2 -9 -6 -59
-10 -110 -3 -51 -8 -111 -10 -133 -27 -256 -26 -1194 0 -1490 2 -27 7 -86 10
-130 3 -44 8 -98 10 -120 3 -22 7 -67 10 -100 8 -87 32 -281 41 -335 2 -14 8
-59 14 -101 10 -72 13 -93 25 -149 2 -14 7 -41 10 -60 3 -19 19 -102 36 -185
166 -820 447 -1393 754 -1536 345 -162 691 211 939 1011 40 130 112 409 121
472 4 24 8 45 10 48 2 3 6 25 10 50 4 25 8 47 10 50 4 6 38 206 50 285 3 23 7
50 9 60 2 11 7 47 11 80 4 32 9 68 11 78 5 27 33 291 39 372 3 39 7 88 10 110
2 22 7 92 11 155 3 63 7 140 10 170 2 30 4 113 5 183 1 71 3 127 5 125 1 -2 5
-37 9 -78 13 -174 22 -273 30 -325 2 -16 7 -50 10 -75 3 -25 7 -56 9 -70 3
-14 7 -41 10 -60 3 -19 8 -46 11 -60 3 -14 12 -61 20 -105 9 -44 20 -95 25
-115 5 -19 11 -47 14 -62 8 -50 67 -253 108 -373 113 -335 242 -604 423 -880
133 -204 223 -315 390 -480 269 -268 558 -444 880 -537 103 -30 114 -32 250
-53 79 -12 390 -13 450 -1 17 4 66 13 110 22 122 23 314 91 440 155 102 51
251 141 301 182 10 9 53 42 94 75 350 278 671 730 887 1251 64 154 162 448
187 561 4 14 17 72 31 130 13 58 27 119 30 135 2 17 7 41 10 55 3 14 8 41 11
60 3 19 7 46 10 60 2 14 7 43 10 65 2 22 7 49 9 60 2 11 7 47 10 80 4 33 8 76
10 95 27 223 27 804 0 1005 -2 17 -6 54 -10 83 -6 65 -12 102 -31 222 -110
690 -379 1342 -751 1818 -217 277 -485 510 -753 655 -84 45 -276 127 -298 127
-10 0 -22 4 -27 9 -16 14 -190 54 -300 68 -68 9 -347 10 -417 1 -262 -34 -545
-141 -779 -296 -119 -79 -115 -75 -253 -194 -278 -238 -521 -564 -717 -959
-32 -65 -59 -120 -59 -123 0 -3 -13 -33 -29 -68 -77 -168 -202 -551 -235 -718
-2 -14 -14 -68 -25 -120 -11 -52 -22 -108 -25 -125 -3 -16 -10 -55 -16 -85
-11 -60 -13 -79 -29 -220 -15 -135 -20 -196 -22 -267 -3 -73 -15 -86 -16 -15
0 53 -13 341 -18 417 -6 90 -17 215 -31 355 -3 36 -7 79 -9 95 -1 17 -6 53 -9
80 -4 28 -12 86 -17 130 -6 44 -12 91 -14 105 -43 270 -35 227 -70 400 -26
136 -78 359 -95 415 -5 17 -23 77 -41 135 -169 569 -406 948 -653 1043 -71 27
-178 31 -242 9z"/>
</g>
</svg>
